<svg width="18" height="17" viewBox="0 0 18 17" fill="none" xmlns="http://www.w3.org/2000/svg">
<path d="M7.86143 7.84238L15.0564 0.647461L16.3525 1.94363L15.0564 3.24071L17.3242 5.50854L16.028 6.80563L13.7593 4.53688L12.4631 5.83304L14.4074 7.77729L13.1112 9.07438L11.1669 7.12921L9.1576 9.13854C9.78135 10.0864 10.0315 11.2318 9.85969 12.3534C9.68788 13.475 9.10631 14.493 8.22743 15.2107C7.34855 15.9283 6.23479 16.2946 5.10151 16.2387C3.96823 16.1828 2.89593 15.7087 2.09193 14.908C1.28621 14.1053 0.807709 13.0317 0.749433 11.8959C0.691157 10.7601 1.05727 9.64313 1.77661 8.76218C2.49595 7.88123 3.51714 7.2992 4.6417 7.12921C5.76625 6.95922 6.91385 7.21341 7.86143 7.84238ZM7.27752 13.611C7.54456 13.3584 7.75825 13.0548 7.90597 12.7182C8.05368 12.3817 8.13242 12.0189 8.13753 11.6513C8.14265 11.2838 8.07402 10.919 7.93572 10.5784C7.79743 10.2378 7.59226 9.92846 7.33234 9.66855C7.07243 9.40864 6.76305 9.20347 6.42249 9.06517C6.08193 8.92687 5.7171 8.85825 5.34956 8.86336C4.98202 8.86847 4.61924 8.94721 4.28266 9.09493C3.94607 9.24265 3.64252 9.45634 3.38993 9.72338C2.889 10.242 2.61181 10.9367 2.61808 11.6577C2.62435 12.3788 2.91356 13.0685 3.42343 13.5784C3.93331 14.0883 4.62304 14.3775 5.34408 14.3837C6.06512 14.39 6.75978 14.1128 7.27843 13.6119L7.27752 13.611Z" fill="#FCD203"/>
</svg>
