<svg width="21" height="20" viewBox="0 0 21 20" fill="none" xmlns="http://www.w3.org/2000/svg">
<path d="M9.16667 9.0835V6.3335L13.75 10.0002L9.16667 13.6668V10.9168H0.916668V9.0835H9.16667ZM2.25317 12.7502H4.20017C4.84004 14.326 6.00757 15.6305 7.50302 16.4406C8.99848 17.2507 10.729 17.516 12.3984 17.1912C14.0679 16.8663 15.5726 15.9715 16.6552 14.6598C17.7378 13.3481 18.331 11.7009 18.3333 10.0002C18.3343 8.2976 17.7428 6.64776 16.6603 5.33362C15.5779 4.01947 14.0719 3.12292 12.4006 2.79774C10.7294 2.47256 8.99713 2.73901 7.50088 3.55139C6.00463 4.36377 4.83768 5.67146 4.20017 7.25016H2.25317C3.421 3.53125 6.89517 0.833496 11 0.833496C16.0628 0.833496 20.1667 4.93741 20.1667 10.0002C20.1667 15.0629 16.0628 19.1668 11 19.1668C6.89517 19.1668 3.421 16.4691 2.25317 12.7502Z" fill="white"/>
</svg>
