<svg width="20" height="19" viewBox="0 0 20 19" fill="none" xmlns="http://www.w3.org/2000/svg">
<path d="M4.455 15.5897L0 19V0.974359C0 0.715943 0.105357 0.468111 0.292893 0.285383C0.48043 0.102655 0.734784 0 1 0H19C19.2652 0 19.5196 0.102655 19.7071 0.285383C19.8946 0.468111 20 0.715943 20 0.974359V14.6154C20 14.8738 19.8946 15.1216 19.7071 15.3044C19.5196 15.4871 19.2652 15.5897 19 15.5897H4.455ZM3.763 13.641H18V1.94872H2V14.9905L3.763 13.641ZM9.293 8.88713L13.536 4.7539L14.95 6.13164L9.293 11.6436L5.403 7.85333L6.818 6.47559L9.293 8.88713Z" fill="white"/>
</svg>
