<svg width="68" height="60" viewBox="0 0 68 60" fill="none" xmlns="http://www.w3.org/2000/svg">
<path d="M24.0001 0H44.0001L50.6668 6.66667H64.0001C64.8841 6.66667 65.732 7.01786 66.3571 7.64298C66.9822 8.2681 67.3334 9.11594 67.3334 10V56.6667C67.3334 57.5507 66.9822 58.3986 66.3571 59.0237C65.732 59.6488 64.8841 60 64.0001 60H4.00008C3.11603 60 2.26818 59.6488 1.64306 59.0237C1.01794 58.3986 0.666748 57.5507 0.666748 56.6667V10C0.666748 9.11594 1.01794 8.2681 1.64306 7.64298C2.26818 7.01786 3.11603 6.66667 4.00008 6.66667H17.3334L24.0001 0ZM34.0001 53.3333C39.3044 53.3333 44.3915 51.2262 48.1422 47.4755C51.8929 43.7247 54.0001 38.6377 54.0001 33.3333C54.0001 28.029 51.8929 22.9419 48.1422 19.1912C44.3915 15.4405 39.3044 13.3333 34.0001 13.3333C28.6958 13.3333 23.6087 15.4405 19.8579 19.1912C16.1072 22.9419 14.0001 28.029 14.0001 33.3333C14.0001 38.6377 16.1072 43.7247 19.8579 47.4755C23.6087 51.2262 28.6958 53.3333 34.0001 53.3333ZM34.0001 46.6667C30.4639 46.6667 27.0725 45.2619 24.572 42.7614C22.0715 40.2609 20.6667 36.8696 20.6667 33.3333C20.6667 29.7971 22.0715 26.4057 24.572 23.9052C27.0725 21.4048 30.4639 20 34.0001 20C37.5363 20 40.9277 21.4048 43.4282 23.9052C45.9287 26.4057 47.3334 29.7971 47.3334 33.3333C47.3334 36.8696 45.9287 40.2609 43.4282 42.7614C40.9277 45.2619 37.5363 46.6667 34.0001 46.6667Z" fill="#E3EEF4"/>
</svg>
