<svg width="17" height="20" viewBox="0 0 17 20" fill="none" xmlns="http://www.w3.org/2000/svg">
<path d="M7.32872 11.6913V13.3617C6.02013 13.3617 4.76514 13.8897 3.83982 14.8295C2.91451 15.7693 2.39468 17.044 2.39468 18.3731H0.75C0.75 16.601 1.44311 14.9014 2.67686 13.6483C3.91061 12.3952 5.58393 11.6913 7.32872 11.6913ZM7.32872 10.856C4.60266 10.856 2.39468 8.61343 2.39468 5.84464C2.39468 3.07585 4.60266 0.833252 7.32872 0.833252C10.0548 0.833252 12.2628 3.07585 12.2628 5.84464C12.2628 8.61343 10.0548 10.856 7.32872 10.856ZM7.32872 9.18557C9.14609 9.18557 10.6181 7.6905 10.6181 5.84464C10.6181 3.99878 9.14609 2.50372 7.32872 2.50372C5.51135 2.50372 4.03936 3.99878 4.03936 5.84464C4.03936 7.6905 5.51135 9.18557 7.32872 9.18557ZM15.0965 16.7294L16.3333 17.9856L15.1705 19.1666L13.9337 17.9104C13.2441 18.3234 12.4298 18.4668 11.6435 18.3136C10.8572 18.1605 10.1529 17.7213 9.66262 17.0784C9.17233 16.4356 8.92972 15.6332 8.98025 14.8216C9.03078 14.0101 9.371 13.2451 9.93712 12.6701C10.5032 12.0951 11.2564 11.7496 12.0554 11.6982C12.8545 11.6469 13.6445 11.8933 14.2774 12.3913C14.9103 12.8893 15.3427 13.6046 15.4935 14.4032C15.6443 15.2018 15.5032 16.0289 15.0965 16.7294ZM12.2628 16.7027C12.6989 16.7027 13.1173 16.5267 13.4257 16.2134C13.7342 15.9001 13.9074 15.4752 13.9074 15.0322C13.9074 14.5892 13.7342 14.1643 13.4257 13.851C13.1173 13.5377 12.6989 13.3617 12.2628 13.3617C11.8266 13.3617 11.4082 13.5377 11.0998 13.851C10.7914 14.1643 10.6181 14.5892 10.6181 15.0322C10.6181 15.4752 10.7914 15.9001 11.0998 16.2134C11.4082 16.5267 11.8266 16.7027 12.2628 16.7027Z" fill="white"/>
</svg>
