<svg width="18" height="17" viewBox="0 0 18 17" fill="none" xmlns="http://www.w3.org/2000/svg">
<path d="M4.0095 13.9487L0 17V0.871795C0 0.64058 0.0948211 0.418836 0.263604 0.255343C0.432387 0.0918495 0.661305 0 0.9 0H17.1C17.3387 0 17.5676 0.0918495 17.7364 0.255343C17.9052 0.418836 18 0.64058 18 0.871795V13.0769C18 13.3081 17.9052 13.5299 17.7364 13.6934C17.5676 13.8569 17.3387 13.9487 17.1 13.9487H4.0095ZM1.8 13.4126L3.3867 12.2051H16.2V1.74359H1.8V13.4126ZM8.1 8.71795H9.9V10.4615H8.1V8.71795ZM8.1 3.48718H9.9V7.84615H8.1V3.48718Z" fill="white"/>
</svg>
