<svg width="20" height="20" viewBox="0 0 20 20" fill="none" xmlns="http://www.w3.org/2000/svg">
<path d="M16.3333 0.833496C16.8393 0.833496 17.25 1.24416 17.25 1.75016V5.19408L15.4167 7.02741V2.66683H2.58333V17.3335H15.4167V14.8053L17.25 12.972V18.2502C17.25 18.7562 16.8393 19.1668 16.3333 19.1668H1.66667C1.16067 19.1668 0.75 18.7562 0.75 18.2502V1.75016C0.75 1.24416 1.16067 0.833496 1.66667 0.833496H16.3333ZM17.9632 7.07416L19.2593 8.37033L12.1295 15.5002L10.8315 15.4983L10.8333 14.204L17.9632 7.07416ZM9.91667 10.0002V11.8335H5.33333V10.0002H9.91667ZM12.6667 6.3335V8.16683H5.33333V6.3335H12.6667Z" fill="white"/>
</svg>
