<svg width="20" height="19" viewBox="0 0 20 19" fill="none" xmlns="http://www.w3.org/2000/svg">
<path d="M18.25 0.75C18.756 0.75 19.1667 1.16067 19.1667 1.66667V14.5C19.1667 15.006 18.756 15.4167 18.25 15.4167H4.91708L0.833332 18.625V1.66667C0.833332 1.16067 1.244 0.75 1.75 0.75H18.25ZM17.3333 2.58333H2.66667V14.8529L4.28275 13.5833H17.3333V2.58333ZM8.63875 4.79433L9.0485 5.425C7.5195 6.25275 7.54608 7.581 7.54608 7.867C7.68817 7.84867 7.83758 7.845 7.98608 7.85875C8.81292 7.93575 9.46467 8.615 9.46467 9.45833C9.46467 10.3438 8.746 11.0625 7.8605 11.0625C7.36825 11.0625 6.898 10.8379 6.601 10.5217C6.12892 10.0212 5.875 9.45833 5.875 8.54625C5.875 6.94208 7.00067 5.50475 8.63875 4.79433ZM13.2221 4.79433L13.6318 5.425C12.1028 6.25275 12.1294 7.581 12.1294 7.867C12.2715 7.84867 12.4209 7.845 12.5694 7.85875C13.3962 7.93575 14.048 8.615 14.048 9.45833C14.048 10.3438 13.3293 11.0625 12.4438 11.0625C11.9516 11.0625 11.4813 10.8379 11.1843 10.5217C10.7122 10.0212 10.4583 9.45833 10.4583 8.54625C10.4583 6.94208 11.584 5.50475 13.2221 4.79433Z" fill="white"/>
</svg>
