<svg width="20" height="18" viewBox="0 0 20 18" fill="none" xmlns="http://www.w3.org/2000/svg">
<path d="M12.5833 2.4C12.4716 2.94444 12.4716 3.50556 12.5833 4.05H2.92583L9.2175 9.54615L13.425 5.81715C13.78 6.25192 14.2233 6.6141 14.7275 6.87727L9.22667 11.7538L2.5 5.8782V15.6H15.8333V7.2675C16.3833 7.3781 16.9501 7.3781 17.5 7.2675V16.425C17.5 16.6438 17.4122 16.8536 17.2559 17.0084C17.0996 17.1631 16.8877 17.25 16.6667 17.25H1.66667C1.44565 17.25 1.23369 17.1631 1.07741 17.0084C0.921129 16.8536 0.833332 16.6438 0.833332 16.425V3.225C0.833332 3.0062 0.921129 2.79635 1.07741 2.64164C1.23369 2.48692 1.44565 2.4 1.66667 2.4H12.5833ZM16.6667 5.7C16.3384 5.7 16.0133 5.63598 15.71 5.5116C15.4066 5.38722 15.131 5.20491 14.8989 4.97509C14.6668 4.74526 14.4826 4.47242 14.357 4.17214C14.2313 3.87186 14.1667 3.55002 14.1667 3.225C14.1667 2.89998 14.2313 2.57814 14.357 2.27786C14.4826 1.97758 14.6668 1.70474 14.8989 1.47491C15.131 1.24509 15.4066 1.06278 15.71 0.938398C16.0133 0.814018 16.3384 0.75 16.6667 0.75C17.3297 0.75 17.9656 1.01076 18.4344 1.47491C18.9033 1.93906 19.1667 2.56859 19.1667 3.225C19.1667 3.88141 18.9033 4.51094 18.4344 4.97509C17.9656 5.43924 17.3297 5.7 16.6667 5.7Z" fill="white"/>
</svg>
