<svg width="20" height="20" viewBox="0 0 20 20" fill="none" xmlns="http://www.w3.org/2000/svg">
<path d="M10 19.1666C4.93725 19.1666 0.833332 15.0627 0.833332 9.99992C0.833332 4.93717 4.93725 0.833252 10 0.833252C15.0627 0.833252 19.1667 4.93717 19.1667 9.99992C19.1667 15.0627 15.0627 19.1666 10 19.1666ZM10 17.3333C11.9449 17.3333 13.8102 16.5606 15.1854 15.1854C16.5607 13.8101 17.3333 11.9448 17.3333 9.99992C17.3333 8.055 16.5607 6.18974 15.1854 4.81447C13.8102 3.4392 11.9449 2.66659 10 2.66659C8.05508 2.66659 6.18982 3.4392 4.81455 4.81447C3.43928 6.18974 2.66667 8.055 2.66667 9.99992C2.66667 11.9448 3.43928 13.8101 4.81455 15.1854C6.18982 16.5606 8.05508 17.3333 10 17.3333ZM10 8.70375L12.5923 6.1105L13.8894 7.40759L11.2962 9.99992L13.8894 12.5923L12.5923 13.8893L10 11.2961L7.40767 13.8893L6.11058 12.5923L8.70383 9.99992L6.11058 7.40759L7.40767 6.1105L10 8.70375Z" fill="white"/>
</svg>
